<?xml version="1.0" encoding="UTF-8"?>
<svg id="b" data-name="Layer 2" xmlns="http://www.w3.org/2000/svg" viewBox="0 0 17.47 9.88">
  <defs>
    <style>
      .e {
        fill: #fff;
      }
    </style>
  </defs>
  <g id="c" data-name="icons">
    <g id="d" data-name="beziercon">
      <polygon class="e" points="1.49 7.48 .71 7.48 .71 9.88 3.11 9.88 3.11 7.48 2.43 7.48 1.49 7.48"/>
      <polygon class="e" points="15.11 7.48 14.37 7.48 14.37 9.88 16.76 9.88 16.76 7.48 16.05 7.48 15.11 7.48"/>
      <path class="e" d="m1.42,0C.64,0,0,.64,0,1.42s.64,1.42,1.42,1.42c.62,0,1.14-.4,1.34-.96h2.52c-.66.36-1.27.82-1.8,1.37-.9.95-1.51,2.08-1.82,3.29h.97c.28-.98.8-1.88,1.52-2.65.67-.7,1.45-1.23,2.31-1.57V.96h-3.7c-.19-.55-.72-.96-1.34-.96Z"/>
      <path class="e" d="m16.05,0c-.62,0-1.14.4-1.34.96h-4v1.25c.99.33,1.91.89,2.66,1.67.74.77,1.26,1.69,1.55,2.67h.96c-.31-1.23-.94-2.38-1.83-3.32-.52-.55-1.13-.99-1.78-1.35h2.45c.19.55.72.96,1.34.96.78,0,1.42-.64,1.42-1.42s-.64-1.42-1.42-1.42Z"/>
      <rect class="e" x="7.39" y=".25" width="2.39" height="2.39"/>
    </g>
  </g>
</svg>